<svg width="41" height="37" viewBox="0 0 41 37" fill="none" xmlns="http://www.w3.org/2000/svg">
<path d="M32.0833 18.4999H30.5814C29.0251 18.4999 28.247 18.4999 27.602 18.8655C26.957 19.2293 26.5576 19.8968 25.757 21.2299L25.7008 21.3274C24.9545 22.5705 24.5814 23.1911 24.0395 23.1818C23.4976 23.1724 23.147 22.5368 22.4476 21.2655L19.2845 15.5149C18.6339 14.3299 18.3095 13.7374 17.7883 13.7093C17.2689 13.6811 16.8808 14.2343 16.1064 15.3405L15.5758 16.0999C14.7508 17.2755 14.3401 17.8624 13.7308 18.1811C13.1195 18.4999 12.4014 18.4999 10.967 18.4999H9.58325" stroke="black" stroke-width="1.5" stroke-linecap="round"/>
<path d="M20.8333 6.31242L19.802 7.26867C19.9336 7.41066 20.0932 7.52394 20.2706 7.6014C20.4481 7.67887 20.6396 7.71885 20.8333 7.71885C21.0269 7.71885 21.2184 7.67887 21.3959 7.6014C21.5733 7.52394 21.7329 7.41066 21.8645 7.26867L20.8333 6.31242ZM16.0258 31.2312C13.307 29.013 10.1326 26.1087 7.65013 22.9268C5.1395 19.7112 3.4895 16.4055 3.4895 13.3643H0.677002C0.677002 17.3505 2.79575 21.2768 5.432 24.6574C8.09638 28.0699 11.4508 31.1299 14.2483 33.4118L16.0258 31.2312ZM3.4895 13.3643C3.4895 8.24554 5.84825 4.82179 8.83325 3.57867C11.7826 2.35242 15.8701 3.04054 19.802 7.26867L21.8645 5.35242C17.3589 0.513044 12.0714 -0.814456 7.75325 0.981794C3.4745 2.76304 0.677002 7.39992 0.677002 13.3643H3.4895ZM27.4183 33.4118C30.2176 31.1299 33.5683 28.0699 36.2345 24.6537C38.8726 21.273 40.9895 17.3487 40.9895 13.3624H38.177C38.177 16.4037 36.527 19.7093 34.0164 22.9249C31.5339 26.1068 28.3595 29.013 25.6408 31.2312L27.4183 33.4118ZM40.9895 13.3624C40.9895 7.39992 38.192 2.76117 33.9133 0.981794C29.5951 -0.814456 24.3076 0.513044 19.8039 5.35054L21.8626 7.26867C25.7964 3.04054 29.8839 2.35242 32.8314 3.57867C35.8183 4.81992 38.177 8.24367 38.177 13.3624H40.9895ZM14.2483 33.4118C16.6295 35.3543 18.2833 36.7812 20.8333 36.7812V33.9687C19.4795 33.9687 18.6376 33.3593 16.0258 31.2312L14.2483 33.4118ZM25.6408 31.2293C23.0289 33.3612 22.187 33.9687 20.8333 33.9687V36.7812C23.3814 36.7812 25.0351 35.3543 27.4183 33.4118L25.6408 31.2293Z" fill="black"/>
</svg>
