<svg width="40" height="41" viewBox="0 0 40 41" fill="none" xmlns="http://www.w3.org/2000/svg">
<path d="M5.95618 20.5002C4.36993 20.5339 2.8718 20.8902 2.36743 21.3083C1.78993 22.1821 3.1043 24.1302 3.30493 24.9496L2.64493 30.3158L2.19493 35.0277C1.92305 40.032 9.4568 41.2583 9.67243 35.0277L8.52493 25.0527C9.02368 23.5564 10.2312 21.5802 9.34805 21.1189C8.43868 20.6427 7.17118 20.4758 5.95618 20.5002ZM5.95618 20.5002C5.86805 18.2558 5.74055 13.5627 6.4718 12.0777M12.4887 8.34455C12.4887 11.9652 15.8524 14.9014 19.9999 14.9014C24.1474 14.9014 27.5112 11.9652 27.5112 8.34455C27.5112 4.72393 24.1493 1.78955 19.9999 1.78955C15.8506 1.78955 12.4887 4.72393 12.4887 8.34455Z" stroke="black" stroke-width="2.5" stroke-linecap="round" stroke-linejoin="round"/>
<path d="M34.0438 20.5001C35.6301 20.5338 37.1301 20.8901 37.6326 21.3082C38.2101 22.182 36.8957 24.1282 36.6951 24.9476L37.3551 30.3157L37.8051 35.0276C38.0769 40.032 30.5432 41.2582 30.3276 35.0276L31.4769 25.0526C30.9763 23.5563 29.7707 21.5801 30.6519 21.1188C31.5613 20.6426 32.8288 20.4757 34.0438 20.5001ZM34.0438 20.5001C34.1169 18.6513 34.2257 15.3851 33.8451 13.2626C33.6911 12.4585 33.4717 11.6684 33.1888 10.9001C30.3651 2.89009 17.7688 -3.15117 8.7688 7.35633" stroke="black" stroke-width="2.5" stroke-linecap="round" stroke-linejoin="round"/>
</svg>
