<svg width="36" height="34" viewBox="0 0 36 34" fill="none" xmlns="http://www.w3.org/2000/svg">
<path fill-rule="evenodd" clip-rule="evenodd" d="M14.7744 1.63406C16.0401 -0.544687 19.1863 -0.544687 20.4519 1.63406L24.3238 8.30906C24.6801 8.92406 25.2988 9.34219 26.0019 9.44906L32.4332 10.4203C35.2344 10.8441 36.2169 14.3841 34.0344 16.1916L29.3488 20.0728C29.0259 20.3405 28.7807 20.69 28.6389 21.0848C28.4971 21.4796 28.4638 21.9052 28.5426 22.3172L29.855 29.2097C30.3688 31.9097 27.5338 34.0059 25.1019 32.7272L18.7044 29.3578C18.3679 29.1808 17.9934 29.0883 17.6132 29.0883C17.2329 29.0883 16.8584 29.1808 16.5219 29.3578L10.1244 32.7272C7.69255 34.0078 4.85755 31.9097 5.3713 29.2097L6.6838 22.3172C6.76256 21.9052 6.72929 21.4796 6.58747 21.0848C6.44566 20.69 6.20049 20.3405 5.87755 20.0728L1.19005 16.1916C-0.990573 14.3841 -0.00994831 10.8441 2.79505 10.4203L9.2263 9.44906C9.57338 9.39642 9.90421 9.26648 10.1943 9.06884C10.4845 8.8712 10.7265 8.6109 10.9026 8.30719L14.7744 1.63406ZM18.0182 3.04594C17.9769 2.97512 17.9178 2.91637 17.8467 2.87553C17.7757 2.83469 17.6951 2.8132 17.6132 2.8132C17.5312 2.8132 17.4507 2.83469 17.3796 2.87553C17.3086 2.91637 17.2494 2.97512 17.2082 3.04594L13.3344 9.72094C12.9467 10.3885 12.414 10.9605 11.7757 11.3948C11.1373 11.829 10.4096 12.1143 9.6463 12.2297L3.21505 13.2009C3.12551 13.2144 3.04177 13.2535 2.97398 13.3135C2.90619 13.3736 2.85724 13.452 2.83304 13.5392C2.80885 13.6265 2.81045 13.7189 2.83764 13.8053C2.86484 13.8916 2.91647 13.9683 2.9863 14.0259L7.67193 17.9072C8.38228 18.4957 8.92175 19.2641 9.23406 20.1321C9.54637 21.0001 9.6201 21.936 9.44755 22.8422L8.13505 29.7347C8.11855 29.8213 8.12684 29.9109 8.15896 29.993C8.19108 30.0752 8.24572 30.1466 8.31662 30.1991C8.38751 30.2516 8.47177 30.283 8.55972 30.2897C8.64767 30.2965 8.73574 30.2783 8.8138 30.2372L15.2113 26.8697C15.9519 26.4798 16.7762 26.2761 17.6132 26.2761C18.4501 26.2761 19.2745 26.4798 20.0151 26.8697L26.4126 30.2372C26.4906 30.2783 26.5787 30.2965 26.6666 30.2897C26.7546 30.283 26.8388 30.2516 26.9097 30.1991C26.9806 30.1466 27.0353 30.0752 27.0674 29.993C27.0995 29.9109 27.1078 29.8213 27.0913 29.7347L25.7788 22.8422C25.6063 21.936 25.68 21.0001 25.9923 20.1321C26.3046 19.2641 26.8441 18.4957 27.5544 17.9072L32.2419 14.0259C32.3118 13.9682 32.3634 13.8914 32.3905 13.8049C32.4176 13.7183 32.419 13.6258 32.3946 13.5385C32.3702 13.4512 32.321 13.3728 32.253 13.3129C32.1849 13.253 32.101 13.2141 32.0113 13.2009L25.5801 12.2297C24.8165 12.1141 24.0887 11.8285 23.4504 11.3939C22.812 10.9594 22.2794 10.387 21.8919 9.71906L18.0182 3.04594Z" fill="black"/>
</svg>
