<svg width="43" height="45" viewBox="0 0 43 45" fill="none" xmlns="http://www.w3.org/2000/svg">
<path d="M16.9 0C16.6614 0 16.4324 0.0948212 16.2637 0.263604C16.0949 0.432387 16 0.661305 16 0.9V2.7C16 2.93869 16.0949 3.16761 16.2637 3.3364C16.4324 3.50518 16.6614 3.6 16.9 3.6H18.25V5.98275C8.51385 7.10325 0.925049 15.394 0.925049 25.425C0.925049 36.2173 9.7077 45 20.5 45C31.2924 45 40.075 36.2173 40.075 25.425C40.0787 21.731 39.0297 18.1125 37.051 14.9931L38.9581 13.4491L39.8077 14.4986C39.8821 14.5905 39.9738 14.6668 40.0776 14.7233C40.1815 14.7797 40.2954 14.8152 40.413 14.8276C40.5305 14.84 40.6494 14.8291 40.7627 14.7956C40.8761 14.7621 40.9817 14.7065 41.0736 14.6322L42.4731 13.4991C42.6584 13.3488 42.7764 13.1311 42.8012 12.8938C42.826 12.6565 42.7556 12.4191 42.6054 12.2337L38.0748 6.6375C38.0005 6.5456 37.9087 6.46924 37.8049 6.41279C37.7011 6.35634 37.5871 6.32089 37.4696 6.30848C37.352 6.29607 37.2332 6.30694 37.1198 6.34046C37.0065 6.37398 36.9008 6.4295 36.8089 6.50385L35.4094 7.63695C35.2242 7.78726 35.1062 8.00498 35.0814 8.24227C35.0566 8.47955 35.127 8.71697 35.2771 8.90235L36.1272 9.95175L34.2282 11.488C31.1965 8.50095 27.1974 6.49575 22.75 5.98365V3.6H24.1C24.3387 3.6 24.5677 3.50518 24.7364 3.3364C24.9052 3.16761 25 2.93869 25 2.7V0.9C25 0.661305 24.9052 0.432387 24.7364 0.263604C24.5677 0.0948212 24.3387 0 24.1 0L16.9 0ZM20.5 9C29.59 9 36.925 16.335 36.925 25.425C36.925 34.515 29.59 41.85 20.5 41.85C11.41 41.85 4.07505 34.515 4.07505 25.425C4.07505 16.335 11.41 9 20.5 9ZM20.5009 12.3494L20.5 25.425L30.9553 33.2761C32.4136 31.3339 33.3021 29.0239 33.5213 26.605C33.7405 24.1862 33.2817 21.7541 32.1964 19.5813C31.1108 17.4088 29.4416 15.5815 27.3759 14.3042C25.3102 13.027 22.9296 12.3498 20.5009 12.3494Z" fill="black"/>
</svg>
